<?xml version="1.0" encoding="iso-8859-1"?>
<!-- Uploaded to: SVG Repo, www.svgrepo.com, Generator: SVG Repo Mixer Tools -->
<!DOCTYPE svg PUBLIC "-//W3C//DTD SVG 1.1//EN" "http://www.w3.org/Graphics/SVG/1.1/DTD/svg11.dtd">
<svg fill="#000000" version="1.1" id="Capa_1" xmlns="http://www.w3.org/2000/svg" xmlns:xlink="http://www.w3.org/1999/xlink" 
	 width="800px" height="800px" viewBox="0 0 40.165 40.165"
	 xml:space="preserve">
<g>
	<path d="M40.14,27.384l-0.555-3.109c-0.146-0.832-0.938-1.649-1.767-1.823l-3.265-0.688c-0.147-0.175-0.302-0.312-0.466-0.425
		c-0.017-0.159-0.003-0.278,0.041-0.377c0.166-0.362,0.293-0.703,0.388-1.033c0.219-0.094,0.337-0.274,0.385-0.346
		c0.077-0.117,0.143-0.244,0.196-0.371c0.146-0.347,0.214-0.688,0.285-1.049c0.026-0.14,0.07-0.274,0.12-0.43l0.077-0.251
		c0.085-0.296,0.037-0.597-0.134-0.821c-0.032-0.045-0.07-0.086-0.111-0.123c0.185-0.961,0.083-1.881-0.298-2.734
		c-0.496-1.108-1.289-1.82-2.356-2.118c-0.394-0.11-0.798-0.19-1.208-0.241l-0.001-0.146l-0.128-0.006
		c-0.235-0.013-0.471-0.019-0.706-0.019l-0.26,0.002c-0.148,0.004-0.304,0.021-0.46,0.048l-0.161-0.24l-0.633,0.408
		c-0.123,0.077-0.246,0.155-0.361,0.241c-0.162,0.119-0.292,0.263-0.388,0.424c-0.329,0.084-0.632,0.25-0.925,0.503
		c-0.041,0.035-0.078,0.075-0.129,0.135l-0.353,0.434l0.126,0.125c-0.123,0.279-0.156,0.544-0.098,0.727
		c-0.17,0.781-0.144,1.58,0.085,2.506c-0.132,0.129-0.213,0.299-0.241,0.508c-0.041,0.296-0.064,0.682,0.117,1.065
		c0.083,0.177,0.138,0.362,0.204,0.593l0.038,0.131c0.047,0.156,0.107,0.311,0.176,0.461c0.057,0.123,0.134,0.242,0.227,0.353
		c0.079,0.093,0.167,0.166,0.261,0.22c0.099,0.354,0.236,0.688,0.41,0.998c-0.003,0.163-0.01,0.328-0.017,0.493l-0.005,0.104
		c-0.115,0.073-0.216,0.157-0.312,0.241l-2.293,0.483l-2.231-0.473c-0.147-0.174-0.302-0.312-0.464-0.424
		c-0.017-0.16-0.003-0.279,0.041-0.377c0.166-0.363,0.293-0.703,0.388-1.033c0.218-0.094,0.337-0.275,0.385-0.348
		c0.078-0.115,0.143-0.242,0.195-0.369c0.146-0.348,0.214-0.688,0.284-1.049c0.026-0.141,0.07-0.275,0.121-0.431l0.076-0.251
		c0.085-0.296,0.037-0.596-0.133-0.822c-0.033-0.043-0.071-0.084-0.112-0.121c0.186-0.961,0.085-1.882-0.298-2.735
		c-0.496-1.108-1.289-1.82-2.357-2.118c-0.393-0.109-0.798-0.191-1.208-0.241l-0.002-0.147l-0.127-0.006
		c-0.235-0.012-0.47-0.018-0.706-0.018l-0.259,0.002c-0.149,0.004-0.304,0.02-0.46,0.048l-0.162-0.241l-0.631,0.409
		c-0.123,0.077-0.246,0.155-0.363,0.241c-0.162,0.119-0.292,0.262-0.387,0.424c-0.328,0.084-0.631,0.25-0.924,0.504
		c-0.041,0.034-0.079,0.074-0.128,0.133l-0.353,0.435l0.125,0.125c-0.122,0.278-0.156,0.544-0.097,0.726
		c-0.17,0.782-0.144,1.582,0.085,2.508c-0.132,0.127-0.213,0.299-0.242,0.508c-0.041,0.295-0.064,0.681,0.118,1.064
		c0.084,0.178,0.138,0.362,0.205,0.594l0.038,0.129c0.047,0.158,0.107,0.312,0.176,0.463c0.056,0.123,0.133,0.242,0.227,0.352
		c0.079,0.094,0.167,0.166,0.261,0.219c0.098,0.354,0.235,0.688,0.41,0.998c-0.003,0.164-0.01,0.329-0.017,0.494l-0.004,0.104
		c-0.116,0.074-0.216,0.158-0.312,0.242l-2.292,0.482l-2.232-0.473c-0.148-0.175-0.301-0.312-0.464-0.425
		c-0.017-0.159-0.003-0.278,0.041-0.377c0.166-0.362,0.293-0.702,0.387-1.032c0.219-0.095,0.338-0.275,0.385-0.347
		c0.077-0.117,0.142-0.244,0.196-0.371c0.147-0.346,0.214-0.688,0.285-1.049c0.027-0.14,0.071-0.274,0.121-0.43l0.077-0.251
		c0.085-0.296,0.037-0.596-0.133-0.821c-0.033-0.045-0.071-0.086-0.112-0.123c0.184-0.961,0.083-1.881-0.298-2.734
		c-0.495-1.108-1.289-1.82-2.357-2.118c-0.392-0.11-0.798-0.19-1.208-0.241l-0.001-0.146l-0.126-0.01
		c-0.235-0.013-0.47-0.019-0.706-0.019l-0.259,0.002c-0.149,0.004-0.304,0.021-0.46,0.048l-0.162-0.24l-0.631,0.408
		c-0.123,0.077-0.246,0.155-0.363,0.241C6.33,11.851,6.2,11.995,6.104,12.157c-0.329,0.084-0.632,0.25-0.925,0.502
		c-0.041,0.035-0.078,0.075-0.128,0.135l-0.353,0.434l0.126,0.125c-0.123,0.279-0.156,0.544-0.097,0.727
		c-0.17,0.781-0.143,1.58,0.085,2.506c-0.132,0.129-0.213,0.3-0.241,0.509c-0.041,0.295-0.064,0.681,0.118,1.065
		c0.083,0.176,0.137,0.361,0.205,0.592l0.038,0.13c0.047,0.156,0.108,0.311,0.176,0.462c0.056,0.122,0.133,0.241,0.227,0.352
		c0.079,0.093,0.167,0.166,0.26,0.22c0.098,0.353,0.236,0.688,0.41,0.998c-0.003,0.164-0.01,0.328-0.017,0.494l-0.003,0.104
		c-0.116,0.072-0.216,0.156-0.312,0.24l-3.327,0.701c-0.827,0.174-1.619,0.99-1.767,1.822l-0.554,3.111
		c-0.079,0.444,0.027,0.866,0.298,1.19c0.271,0.323,0.669,0.504,1.121,0.504h11.137h3.869h7.27h3.869h11.137
		c0.451,0,0.851-0.181,1.121-0.504C40.111,28.251,40.219,27.829,40.14,27.384z M28.229,22.435l0.131-0.033l-0.012-0.057
		c0.117-0.104,0.253-0.187,0.374-0.256c0.021-0.012,0.038-0.025,0.075-0.056c0.112-0.06,0.172-0.146,0.179-0.329l0.007-0.191
		c0.01-0.211,0.018-0.42,0.021-0.629c0.001-0.084-0.021-0.176-0.063-0.254c-0.222-0.412-0.367-0.814-0.445-1.232l-0.023-0.068
		l-0.097-0.138l-0.139,0.085c-0.008,0-0.03-0.006-0.075-0.059c-0.051-0.059-0.091-0.121-0.119-0.184
		c-0.055-0.119-0.104-0.24-0.142-0.365l-0.038-0.127c-0.066-0.23-0.137-0.471-0.244-0.699c-0.1-0.209-0.083-0.447-0.056-0.652
		c0.012-0.083,0.018-0.125,0.239-0.145l0.168-0.014l-0.05-0.16c-0.354-1.16-0.396-2.065-0.135-2.937l-0.086-0.033
		c-0.004-0.162,0.113-0.438,0.366-0.698l-0.049-0.07c0.23-0.178,0.469-0.278,0.724-0.307c0.079-0.009,0.181-0.072,0.204-0.162
		c0.038-0.14,0.119-0.252,0.247-0.347c0.096-0.069,0.196-0.135,0.296-0.196l0.047,0.064c0.296-0.114,0.564-0.174,0.819-0.184
		l0.077,0.104l0.134,0.002c0.65,0.009,1.295,0.103,1.917,0.274c0.862,0.24,1.479,0.802,1.888,1.714
		c0.373,0.833,0.427,1.705,0.164,2.666l-0.029,0.102l-0.021,0.13l0.123,0.039l0.121,0.006c0.043,0,0.104,0.01,0.139,0.057
		c0.03,0.043,0.036,0.105,0.015,0.182l-0.07,0.232c-0.054,0.168-0.106,0.337-0.146,0.539c-0.061,0.309-0.117,0.6-0.233,0.875
		c-0.037,0.087-0.079,0.173-0.132,0.25c-0.042,0.064-0.062,0.078-0.061,0.08c-0.005-0.002-0.03-0.008-0.104-0.058l-0.171-0.116
		l-0.061,0.301c-0.084,0.4-0.227,0.817-0.435,1.274c-0.165,0.363-0.118,0.749-0.029,1.099l0.062,0.088l0.039,0.019
		c0.11,0.055,0.219,0.133,0.337,0.25c0.062,0.057,0.12,0.113,0.173,0.182c0.014,0.018,0.027,0.032,0.051,0.059l-0.003,0.062
		l0.424,0.09l-2.39,2.793l-0.417-1.405l0.7-0.517l-1.196-0.879l-1.197,0.878l0.702,0.516l-0.4,1.354l-2.41-2.737L28.229,22.435z
		 M17.09,22.435l0.131-0.033l-0.011-0.057c0.118-0.104,0.253-0.187,0.374-0.256c0.02-0.012,0.038-0.025,0.076-0.056
		c0.112-0.06,0.171-0.146,0.178-0.329l0.008-0.191c0.008-0.211,0.017-0.42,0.021-0.629c0.002-0.084-0.021-0.176-0.064-0.254
		c-0.222-0.412-0.368-0.814-0.446-1.232l-0.025-0.068l-0.096-0.138l-0.138,0.085c-0.008,0-0.031-0.006-0.076-0.059
		c-0.049-0.059-0.09-0.121-0.118-0.184c-0.055-0.119-0.104-0.24-0.141-0.365l-0.037-0.127c-0.067-0.23-0.137-0.471-0.245-0.699
		c-0.099-0.209-0.083-0.447-0.055-0.652c0.011-0.083,0.017-0.125,0.239-0.145l0.167-0.014l-0.049-0.16
		c-0.354-1.16-0.396-2.065-0.135-2.937l-0.086-0.033c-0.003-0.162,0.114-0.438,0.367-0.698l-0.049-0.07
		c0.231-0.178,0.469-0.278,0.723-0.307c0.08-0.009,0.181-0.072,0.205-0.162c0.038-0.14,0.119-0.252,0.248-0.347
		c0.095-0.069,0.195-0.135,0.296-0.196l0.046,0.064c0.296-0.114,0.565-0.174,0.82-0.184l0.077,0.104l0.134,0.002
		c0.65,0.009,1.295,0.103,1.917,0.274c0.861,0.24,1.479,0.802,1.887,1.714c0.373,0.833,0.427,1.705,0.163,2.666l-0.028,0.102
		l-0.021,0.13l0.123,0.039l0.119,0.006c0.045,0,0.104,0.01,0.139,0.057c0.031,0.043,0.037,0.105,0.016,0.182l-0.072,0.232
		c-0.053,0.168-0.105,0.337-0.146,0.539c-0.062,0.309-0.116,0.6-0.233,0.875c-0.037,0.087-0.08,0.173-0.131,0.25
		c-0.042,0.064-0.062,0.078-0.061,0.08c-0.005-0.002-0.031-0.008-0.104-0.058l-0.17-0.116l-0.062,0.302
		c-0.084,0.4-0.228,0.817-0.436,1.274c-0.165,0.362-0.118,0.749-0.029,1.099l0.062,0.088L22.4,21.86
		c0.111,0.056,0.219,0.134,0.338,0.25c0.062,0.058,0.12,0.113,0.173,0.183c0.015,0.017,0.027,0.032,0.051,0.058l-0.004,0.062
		l0.426,0.09l-2.391,2.793l-0.417-1.406l0.701-0.516l-1.196-0.879l-1.197,0.879l0.701,0.516l-0.401,1.354l-2.41-2.737L17.09,22.435z
		 M5.954,22.435l0.131-0.033l-0.012-0.057c0.118-0.104,0.253-0.187,0.375-0.256c0.02-0.012,0.038-0.025,0.076-0.056
		c0.112-0.06,0.171-0.146,0.178-0.329l0.008-0.191c0.009-0.211,0.017-0.42,0.021-0.629c0.001-0.084-0.022-0.176-0.064-0.254
		c-0.222-0.412-0.368-0.814-0.446-1.232L6.196,19.33l-0.096-0.138l-0.138,0.085c-0.008,0-0.031-0.006-0.076-0.059
		c-0.05-0.059-0.09-0.121-0.118-0.184c-0.055-0.119-0.104-0.24-0.141-0.365L5.59,18.542c-0.068-0.23-0.137-0.471-0.246-0.699
		c-0.099-0.209-0.083-0.447-0.055-0.652c0.011-0.083,0.017-0.125,0.239-0.145l0.168-0.014l-0.049-0.16
		c-0.354-1.16-0.395-2.065-0.135-2.937l-0.086-0.033c-0.003-0.162,0.114-0.438,0.367-0.698l-0.05-0.07
		c0.231-0.178,0.469-0.278,0.723-0.307c0.08-0.009,0.181-0.072,0.205-0.162c0.038-0.14,0.119-0.252,0.247-0.347
		c0.096-0.069,0.196-0.135,0.296-0.196l0.046,0.064c0.296-0.114,0.565-0.174,0.82-0.184l0.077,0.104l0.134,0.002
		c0.65,0.009,1.295,0.103,1.917,0.274c0.862,0.24,1.479,0.802,1.887,1.714c0.373,0.833,0.426,1.705,0.163,2.666l-0.029,0.102
		l-0.022,0.13l0.123,0.039l0.121,0.006c0.043,0,0.103,0.01,0.138,0.057c0.031,0.043,0.037,0.105,0.015,0.182l-0.072,0.232
		c-0.053,0.168-0.106,0.337-0.146,0.539c-0.061,0.309-0.118,0.6-0.234,0.875c-0.037,0.087-0.08,0.173-0.132,0.25
		c-0.042,0.064-0.062,0.078-0.06,0.08c-0.005-0.002-0.031-0.008-0.104-0.058l-0.17-0.116l-0.06,0.301
		c-0.084,0.4-0.227,0.817-0.435,1.274c-0.166,0.363-0.118,0.749-0.03,1.099l0.063,0.088l0.039,0.019
		c0.111,0.055,0.218,0.133,0.337,0.25c0.061,0.057,0.12,0.113,0.172,0.182c0.014,0.018,0.028,0.032,0.051,0.059l-0.004,0.062
		l0.425,0.09l-2.39,2.793L9.438,23.89l0.701-0.517l-1.196-0.879l-1.197,0.879l0.702,0.515l-0.401,1.354l-2.41-2.737L5.954,22.435z
		 M11.709,24.272l-0.554,3.11c-0.062,0.349-0.007,0.681,0.147,0.966H5.039v-1.651c0-0.2-0.164-0.364-0.365-0.364
		c-0.202,0-0.366,0.164-0.366,0.364v1.651H1.437c-0.231,0-0.431-0.086-0.561-0.242c-0.13-0.154-0.18-0.365-0.139-0.594l0.554-3.111
		c0.096-0.545,0.656-1.123,1.198-1.236l2.325-0.49l3.901,4.432c0.069,0.08,0.169,0.125,0.277,0.125c0.106,0,0.206-0.047,0.275-0.127
		l2.453-2.867C11.719,24.249,11.712,24.261,11.709,24.272z M28.144,28.106c-0.13,0.156-0.329,0.242-0.562,0.242h-0.269h-0.729H24.71
		v-1.651c0-0.2-0.164-0.364-0.364-0.364c-0.201,0-0.365,0.164-0.365,0.364v1.651h-0.268h-1.271h-4.726h-1.271h-0.267v-1.651
		c0-0.2-0.164-0.364-0.365-0.364s-0.365,0.164-0.365,0.364v1.651h-1.874h-0.73h-0.268c-0.231,0-0.431-0.086-0.561-0.242
		c-0.13-0.154-0.18-0.365-0.139-0.594l0.553-3.111c0.097-0.545,0.656-1.123,1.198-1.236l0.883-0.188l1.442-0.304l1.335,1.517
		l2.566,2.914c0.069,0.08,0.169,0.125,0.277,0.125c0.105,0,0.206-0.047,0.274-0.127l2.453-2.867l1.337-1.562l1.452,0.307
		l0.883,0.188c0.542,0.112,1.102,0.69,1.197,1.235l0.553,3.111C28.323,27.741,28.272,27.952,28.144,28.106z M39.281,28.106
		c-0.131,0.156-0.33,0.242-0.562,0.242h-2.871v-1.651c0-0.2-0.164-0.364-0.366-0.364c-0.2,0-0.364,0.164-0.364,0.364v1.651h-6.265
		c0.155-0.285,0.209-0.617,0.146-0.966l-0.555-3.108c-0.005-0.027-0.017-0.055-0.021-0.084l2.563,2.914
		c0.069,0.08,0.17,0.125,0.277,0.125c0.105,0,0.206-0.047,0.274-0.127l3.79-4.431l2.335,0.492c0.542,0.112,1.102,0.69,1.196,1.235
		l0.555,3.11C39.46,27.741,39.411,27.952,39.281,28.106z"/>
</g>
</svg>